<svg width="102" height="100" viewBox="0 0 102 100" fill="none" xmlns="http://www.w3.org/2000/svg">
<g filter="url(#filter0_f_144_12)">
<path d="M71.5381 17.8213L68.0225 17.859L68.1045 25.4723C59.1645 28.067 46.9066 29.3273 35.59 30.0764C42.4449 48.8818 54.9957 64.0158 66.4191 80.2971C70.4656 76.4582 76.4016 74.0504 82.7199 73.2639C78.6574 69.727 75.5648 67.8018 71.2291 59.5064C77.3365 66.7496 81.4984 68.9727 86.3898 71.617C87.0272 69.0596 88.1355 66.8049 90.0463 65.2354C91.7391 63.8447 93.9576 63.1545 96.5951 63.215C87.44 51.5426 76.7377 40.3529 71.6283 26.216L71.5381 17.8213ZM32.8848 20.1016L29.3695 20.1492C29.3695 20.1492 29.4184 23.7313 29.4789 27.3699C29.5094 29.1895 29.5424 31.0229 29.5744 32.4342C29.5861 32.949 29.5973 33.3287 29.6084 33.7119C22.8939 50.066 16.1018 65.1559 5.40527 79.3061C11.9746 79.0352 18.3596 79.0711 24.6537 79.298C29.002 67.0682 29.2135 52.9592 31.6121 39.8438C33.842 53.2348 33.6758 67.0791 38.1518 80.0449C46.5428 80.6469 54.8881 81.4508 63.4154 82.1789C52.5424 66.7197 40.327 51.8982 33.1189 33.4748C33.1092 33.1268 33.0994 32.8115 33.0893 32.3543C33.0576 30.9566 33.0242 29.1271 32.9939 27.3113C32.9334 23.6797 32.8848 20.1016 32.8848 20.1016Z" fill="url(#paint0_linear_144_12)"/>
</g>
<path d="M71.5381 17.8213L68.0225 17.859L68.1045 25.4723C59.1645 28.067 46.9066 29.3273 35.59 30.0764C42.4449 48.8818 54.9957 64.0158 66.4191 80.2971C70.4656 76.4582 76.4016 74.0504 82.7199 73.2639C78.6574 69.727 75.5648 67.8018 71.2291 59.5064C77.3365 66.7496 81.4984 68.9727 86.3898 71.617C87.0272 69.0596 88.1355 66.8049 90.0463 65.2354C91.7391 63.8447 93.9576 63.1545 96.5951 63.215C87.44 51.5426 76.7377 40.3529 71.6283 26.216L71.5381 17.8213ZM32.8848 20.1016L29.3695 20.1492C29.3695 20.1492 29.4184 23.7313 29.4789 27.3699C29.5094 29.1895 29.5424 31.0229 29.5744 32.4342C29.5861 32.949 29.5973 33.3287 29.6084 33.7119C22.8939 50.066 16.1018 65.1559 5.40527 79.3061C11.9746 79.0352 18.3596 79.0711 24.6537 79.298C29.002 67.0682 29.2135 52.9592 31.6121 39.8438C33.842 53.2348 33.6758 67.0791 38.1518 80.0449C46.5428 80.6469 54.8881 81.4508 63.4154 82.1789C52.5424 66.7197 40.327 51.8982 33.1189 33.4748C33.1092 33.1268 33.0994 32.8115 33.0893 32.3543C33.0576 30.9566 33.0242 29.1271 32.9939 27.3113C32.9334 23.6797 32.8848 20.1016 32.8848 20.1016Z" fill="url(#paint1_linear_144_12)"/>
<defs>
<filter id="filter0_f_144_12" x="-4" y="-5" width="110" height="110" filterUnits="userSpaceOnUse" color-interpolation-filters="sRGB">
<feFlood flood-opacity="0" result="BackgroundImageFix"/>
<feBlend mode="normal" in="SourceGraphic" in2="BackgroundImageFix" result="shape"/>
<feGaussianBlur stdDeviation="2.5" result="effect1_foregroundBlur_144_12"/>
</filter>
<linearGradient id="paint0_linear_144_12" x1="5.40527" y1="17.8213" x2="99.9294" y2="76.8385" gradientUnits="userSpaceOnUse">
<stop stop-color="#FF8000"/>
<stop offset="1" stop-color="#FFBF80"/>
</linearGradient>
<linearGradient id="paint1_linear_144_12" x1="5.40527" y1="17.8213" x2="99.9294" y2="76.8385" gradientUnits="userSpaceOnUse">
<stop stop-color="#FF8000"/>
<stop offset="1" stop-color="#FFBF80"/>
</linearGradient>
</defs>
</svg>
