<svg width="25" height="25" viewBox="0 0 25 25" fill="none" xmlns="http://www.w3.org/2000/svg">
<g clip-path="url(#clip0_20_2)">
<path d="M23.5341 8.76158C24.9545 7.34113 24.3068 5.68204 23.5341 4.87522L20.125 1.46613C18.6932 0.0456735 17.0454 0.693401 16.2386 1.46613L14.3068 3.40931H11.3636C9.20452 3.40931 7.95452 4.54567 7.31816 5.85249L2.2727 10.8979V15.4434L1.46588 16.2389C0.0454294 17.6707 0.693157 19.3184 1.46588 20.1252L4.87497 23.5343C5.48861 24.1479 6.1477 24.3752 6.7727 24.3752C7.57952 24.3752 8.31816 23.9775 8.76134 23.5343L11.8295 20.4548H15.9091C17.8409 20.4548 18.8182 19.2502 19.1704 18.0684C20.4545 17.7275 21.1591 16.7502 21.4432 15.7957C23.2045 15.3411 23.8636 13.6707 23.8636 12.5002V9.09113H23.1932L23.5341 8.76158ZM21.5909 12.5002C21.5909 13.0116 21.375 13.6366 20.4545 13.6366H19.3182V14.7729C19.3182 15.2843 19.1022 15.9093 18.1818 15.9093H17.0454V17.0457C17.0454 17.557 16.8295 18.182 15.9091 18.182H10.8977L7.17043 21.9093C6.81816 22.2389 6.61361 22.0457 6.48861 21.9207L3.09088 18.5343C2.76134 18.182 2.95452 17.9775 3.07952 17.8525L4.54543 16.3752V11.8298L6.81816 9.55704V11.3639C6.81816 12.7389 7.72725 14.7729 10.2272 14.7729C12.7272 14.7729 13.6363 12.7389 13.6363 11.3639H21.5909V12.5002ZM21.9204 7.14795L19.9886 9.09113H11.3636V11.3639C11.3636 11.8752 11.1477 12.5002 10.2272 12.5002C9.30679 12.5002 9.09088 11.8752 9.09088 11.3639V7.95476C9.09088 7.43204 9.28407 5.68204 11.3636 5.68204H15.2386L17.8295 3.09113C18.1818 2.76158 18.3863 2.95476 18.5113 3.07976L21.9091 6.46613C22.2386 6.8184 22.0454 7.02295 21.9204 7.14795Z" fill="url(#paint0_linear_20_2)"/>
</g>
<defs>
<linearGradient id="paint0_linear_20_2" x1="0.626221" y1="0.626465" x2="29.2757" y2="13.2501" gradientUnits="userSpaceOnUse">
<stop stop-color="#7FFF00"/>
<stop offset="1" stop-color="#D5FF80"/>
<stop offset="1" stop-color="#BFFF80"/>
</linearGradient>
<clipPath id="clip0_20_2">
<rect width="25" height="25" fill="white"/>
</clipPath>
</defs>
</svg>
