<svg width="100" height="100" viewBox="0 0 100 100" fill="none" xmlns="http://www.w3.org/2000/svg">
<g filter="url(#filter0_f_144_4)">
<path d="M84.716 8C76.3233 11.7305 71.7975 18.3772 69.7028 26.8564C77.1022 22.6033 82.3849 16.5542 84.716 8ZM21.6153 8.52785C24.3458 14.5882 28.9404 19.4726 35.0631 23.413C35.3401 17.926 34.7256 12.9421 33.1125 8.52803L21.6153 8.52785ZM60.9315 10.1989C56.0987 20.2397 52.1656 30.4525 48.9964 40.8122C46.7043 33.7385 43.8427 26.7801 40.3395 19.9513C40.3829 26.3577 40.9582 32.5912 41.9997 38.673C35.1545 32.465 27.9448 26.5632 20.3281 21.0041C25.5876 28.715 31.2683 35.9392 37.315 42.7397C32.6566 41.2941 27.3116 40.9565 21.8327 41.6903C25.2858 44.3199 29.3388 46.6394 33.6434 48.0182C25.1319 48.5028 16.5852 49.3933 8 50.7339C15.2964 52.1129 22.5629 53.0849 29.8036 53.6943C25.8864 55.2744 22.0426 57.0307 18.284 58.9581C25.4219 58.9097 32.3455 58.2022 39.0834 56.9231C36.141 60.7437 33.5212 64.8614 31.1753 69.2322C35.6989 66.5745 39.9602 63.6286 43.9285 60.3597C41.7306 70.5982 40.1827 80.961 39.1664 91.4257C42.9719 82.5338 46.3809 73.4979 49.3397 64.2988C51.3228 69.2338 53.5929 74.0753 56.1168 78.8346C55.6809 72.2716 54.8864 65.7809 53.6924 59.3711C61.9242 66.9435 70.6546 73.9397 79.79 80.467C72.962 71.3496 65.6862 62.6091 57.8913 54.3048C69.3465 53.8657 80.7432 52.6244 92.0928 50.7341C83.7435 49.5357 75.3664 48.6587 66.9588 48.137C70.4052 46.6189 73.8069 44.9625 77.1674 43.1805C70.74 43.6071 64.3821 44.3765 58.1017 45.5294C60.2736 42.6116 62.2532 39.5555 64.0279 36.3804C61.1485 37.7907 58.3696 39.3976 55.7108 41.1895C58.0359 31.0714 59.7993 20.7498 60.9313 10.1991L60.9315 10.1989ZM91.7008 15.4063C83.1321 20.1882 76.0226 27.5487 70.6194 37.9669C78.7631 37.7915 85.7246 35.6985 91.7006 32.0493V15.4063H91.7008ZM9.27595 27.0977C9.05008 27.096 8.8228 27.097 8.59429 27.1003C12.8357 33.3618 18.5136 36.7918 26.479 35.7194C22.162 29.7087 16.2851 27.1504 9.27595 27.0977ZM75.0296 58.6522C73.1793 58.6469 71.2631 58.8389 69.2888 59.2059C75.4286 65.6153 82.8305 68.7452 91.9915 67.3008C87.4063 61.2109 81.6379 58.6715 75.0293 58.6522H75.0296ZM24.8169 62.5943C23.4093 62.595 22.0322 62.692 20.6911 62.8263C16.2203 63.2781 12.0794 64.512 8.26981 66.5285V78.9498C14.983 75.4842 21.0212 70.1909 26.2345 62.6273C25.7585 62.6045 25.2862 62.5939 24.8169 62.5939V62.5943ZM34.9638 71.3575C26.0951 75.4267 22.4956 82.6317 22.2078 91.808C29.7802 87.1781 34.4189 80.6159 34.9638 71.3575ZM62.6771 74.1249C62.8233 80.9063 64.5656 86.7025 67.6046 91.6788H81.4631C77.4812 84.5438 71.3523 78.624 62.6769 74.1247L62.6771 74.1249Z" fill="url(#paint0_linear_144_4)"/>
</g>
<path d="M84.716 8C76.3233 11.7305 71.7975 18.3772 69.7028 26.8564C77.1022 22.6033 82.3849 16.5542 84.716 8ZM21.6153 8.52785C24.3458 14.5882 28.9404 19.4726 35.0631 23.413C35.3401 17.926 34.7256 12.9421 33.1125 8.52803L21.6153 8.52785ZM60.9315 10.1989C56.0987 20.2397 52.1656 30.4525 48.9964 40.8122C46.7043 33.7385 43.8427 26.7801 40.3395 19.9513C40.3829 26.3577 40.9582 32.5912 41.9997 38.673C35.1545 32.465 27.9448 26.5632 20.3281 21.0041C25.5876 28.715 31.2683 35.9392 37.315 42.7397C32.6566 41.2941 27.3116 40.9565 21.8327 41.6903C25.2858 44.3199 29.3388 46.6394 33.6434 48.0182C25.1319 48.5028 16.5852 49.3933 8 50.7339C15.2964 52.1129 22.5629 53.0849 29.8036 53.6943C25.8864 55.2744 22.0426 57.0307 18.284 58.9581C25.4219 58.9097 32.3455 58.2022 39.0834 56.9231C36.141 60.7437 33.5212 64.8614 31.1753 69.2322C35.6989 66.5745 39.9602 63.6286 43.9285 60.3597C41.7306 70.5982 40.1827 80.961 39.1664 91.4257C42.9719 82.5338 46.3809 73.4979 49.3397 64.2988C51.3228 69.2338 53.5929 74.0753 56.1168 78.8346C55.6809 72.2716 54.8864 65.7809 53.6924 59.3711C61.9242 66.9435 70.6546 73.9397 79.79 80.467C72.962 71.3496 65.6862 62.6091 57.8913 54.3048C69.3465 53.8657 80.7432 52.6244 92.0928 50.7341C83.7435 49.5357 75.3664 48.6587 66.9588 48.137C70.4052 46.6189 73.8069 44.9625 77.1674 43.1805C70.74 43.6071 64.3821 44.3765 58.1017 45.5294C60.2736 42.6116 62.2532 39.5555 64.0279 36.3804C61.1485 37.7907 58.3696 39.3976 55.7108 41.1895C58.0359 31.0714 59.7993 20.7498 60.9313 10.1991L60.9315 10.1989ZM91.7008 15.4063C83.1321 20.1882 76.0226 27.5487 70.6194 37.9669C78.7631 37.7915 85.7246 35.6985 91.7006 32.0493V15.4063H91.7008ZM9.27595 27.0977C9.05008 27.096 8.8228 27.097 8.59429 27.1003C12.8357 33.3618 18.5136 36.7918 26.479 35.7194C22.162 29.7087 16.2851 27.1504 9.27595 27.0977ZM75.0296 58.6522C73.1793 58.6469 71.2631 58.8389 69.2888 59.2059C75.4286 65.6153 82.8305 68.7452 91.9915 67.3008C87.4063 61.2109 81.6379 58.6715 75.0293 58.6522H75.0296ZM24.8169 62.5943C23.4093 62.595 22.0322 62.692 20.6911 62.8263C16.2203 63.2781 12.0794 64.512 8.26981 66.5285V78.9498C14.983 75.4842 21.0212 70.1909 26.2345 62.6273C25.7585 62.6045 25.2862 62.5939 24.8169 62.5939V62.5943ZM34.9638 71.3575C26.0951 75.4267 22.4956 82.6317 22.2078 91.808C29.7802 87.1781 34.4189 80.6159 34.9638 71.3575ZM62.6771 74.1249C62.8233 80.9063 64.5656 86.7025 67.6046 91.6788H81.4631C77.4812 84.5438 71.3523 78.624 62.6769 74.1247L62.6771 74.1249Z" fill="url(#paint1_linear_144_4)"/>
<defs>
<filter id="filter0_f_144_4" x="-5" y="-5" width="110" height="110" filterUnits="userSpaceOnUse" color-interpolation-filters="sRGB">
<feFlood flood-opacity="0" result="BackgroundImageFix"/>
<feBlend mode="normal" in="SourceGraphic" in2="BackgroundImageFix" result="shape"/>
<feGaussianBlur stdDeviation="2.5" result="effect1_foregroundBlur_144_4"/>
</filter>
<linearGradient id="paint0_linear_144_4" x1="8" y1="8" x2="109.337" y2="52.8056" gradientUnits="userSpaceOnUse">
<stop stop-color="#7FFF00"/>
<stop offset="1" stop-color="#D5FF80"/>
<stop offset="1" stop-color="#BFFF80"/>
</linearGradient>
<linearGradient id="paint1_linear_144_4" x1="8" y1="8" x2="109.337" y2="52.8056" gradientUnits="userSpaceOnUse">
<stop stop-color="#7FFF00"/>
<stop offset="1" stop-color="#D5FF80"/>
<stop offset="1" stop-color="#BFFF80"/>
</linearGradient>
</defs>
</svg>
