<svg width="25" height="25" viewBox="0 0 25 25" fill="none" xmlns="http://www.w3.org/2000/svg">
<g clip-path="url(#clip0_20_4)">
<path d="M3.125 22.2221H7.8125V13.8888H17.1875V22.2221H21.875V9.72211L12.5 3.47211L3.125 9.72211V22.2221ZM3.125 24.9999C2.26563 24.9999 1.52969 24.7277 0.91719 24.1832C0.30469 23.6388 -0.00103901 22.9851 2.6528e-06 22.2221V9.72211C2.6528e-06 9.2823 0.11094 8.86563 0.332815 8.47211C0.55469 8.07859 0.860419 7.75452 1.25 7.49989L10.625 1.24989C10.9115 1.06471 11.2109 0.925817 11.5234 0.833225C11.8359 0.740632 12.1615 0.694336 12.5 0.694336C12.8385 0.694336 13.1641 0.740632 13.4766 0.833225C13.7891 0.925817 14.0885 1.06471 14.375 1.24989L23.75 7.49989C24.1406 7.75452 24.4469 8.07859 24.6687 8.47211C24.8906 8.86563 25.001 9.2823 25 9.72211V22.2221C25 22.986 24.6937 23.6402 24.0812 24.1846C23.4687 24.7291 22.7333 25.0008 21.875 24.9999H14.0625V16.6666H10.9375V24.9999H3.125Z" fill="url(#paint0_linear_20_4)"/>
</g>
<defs>
<linearGradient id="paint0_linear_20_4" x1="0" y1="0.694336" x2="29.8784" y2="14.2363" gradientUnits="userSpaceOnUse">
<stop stop-color="#FF8000"/>
<stop offset="1" stop-color="#FFBF80"/>
</linearGradient>
<clipPath id="clip0_20_4">
<rect width="25" height="25" fill="white"/>
</clipPath>
</defs>
</svg>
